<svg width="30" height="23" viewBox="0 0 30 23" fill="none" xmlns="http://www.w3.org/2000/svg">
<path d="M4.58144 23L3.27245 20.7316L4.40606 20.0768L3.75157 18.9427L4.88519 18.2878L4.23069 17.1537L5.36431 16.4989L4.70982 15.3647L5.84343 14.7099L5.18894 13.5757L0.65449 16.1949L0 15.0608L7.93528 10.4771L9.24426 12.7454L8.11065 13.4002L8.76514 14.5344L7.63153 15.1892L8.28602 16.3234L7.15241 16.9782L7.8069 18.1124L6.67329 18.7672L7.32778 19.9014L11.8622 17.2821L12.5167 18.4163L4.58144 23Z" fill="white"/>
<path d="M13.6503 17.7615L10.3779 12.0906L11.5115 11.4358L10.857 10.3016L11.9906 9.64679L11.3361 8.51261L14.7369 6.54816L15.3914 7.68234L16.525 7.02752L17.1795 8.1617L18.3131 7.50688L21.5856 13.1778L19.3184 14.4874L18.0094 12.219L14.6086 14.1835L15.9175 16.4518L13.6503 17.7615ZM13.9541 13.0493L17.3549 11.0849L16.0459 8.81651L14.9123 9.47133L14.2578 8.33715L13.1242 8.99197L13.7787 10.1261L12.6451 10.781L13.9541 13.0493Z" fill="#FF9D00"/>
<path d="M23.8528 11.8681L23.1983 10.7339L22.0647 11.3888L18.1378 4.58371L20.405 3.27408L23.023 7.81078L24.1566 7.15597L21.5386 2.61927L22.6722 1.96445L25.2902 6.50115L26.4238 5.84633L23.8058 1.30963L26.0731 0L30 6.80505L28.8664 7.45987L29.5209 8.59404L28.3873 9.24886L27.7328 8.11468L26.5992 8.7695L25.9447 7.63532L24.8111 8.29014L25.4656 9.42432L24.3319 10.0791L24.9864 11.2133L23.8528 11.8681Z" fill="white"/>
</svg>
